<svg width="333" height="90" viewBox="0 0 333 90" fill="none" xmlns="http://www.w3.org/2000/svg">
<g id="Logo">
<g id="Pittogramma">
<path id="Path 3" fill-rule="evenodd" clip-rule="evenodd" d="M24.9997 25.8932L0 0V63.9026L24.9997 89.9999V64.0316L49.8101 90.0002H86.1882L57.5609 59.443H24.9997V25.8932Z" fill="black"/>
<ellipse id="Oval" cx="62.8968" cy="29.3002" rx="12.5415" ry="12.4969" fill="#FE2C67"/>
</g>
<g id="Klink">
<path id="Shape" fill-rule="evenodd" clip-rule="evenodd" d="M141.357 57.5876L163.283 89.9998H185.996L161.162 55.0236L184.955 23.1475H162.147L141.357 52.8259L141.357 55.1652L141.357 57.5876ZM122.4 23.1477V90H141.327V23.1477H122.4Z" fill="black"/>
<path id="Path" d="M187.464 89.9997V21.2695H206.012V89.9997H187.464Z" fill="black"/>
<path id="Shape_2" fill-rule="evenodd" clip-rule="evenodd" d="M211.954 36.715C213.752 38.5616 216.007 39.4849 218.72 39.4849C221.496 39.4849 223.768 38.5616 225.534 36.715C227.301 34.8684 228.184 32.5993 228.184 29.9077C228.184 27.2161 227.301 24.947 225.534 23.1004C223.768 21.2539 221.496 20.3306 218.72 20.3306C216.007 20.3306 213.752 21.2539 211.954 23.1004C210.156 24.947 209.257 27.2161 209.257 29.9077C209.257 32.5993 210.156 34.8684 211.954 36.715ZM209.446 43.8044V90.0001H227.995V43.8044H209.446Z" fill="black"/>
<path id="Shape_3" fill-rule="evenodd" clip-rule="evenodd" d="M261.049 64.085V89.9996H279.598V59.8597C279.598 56.5422 278.841 53.6158 277.327 51.0807C275.813 48.5456 273.746 46.5425 271.128 45.0715C268.51 43.6005 265.529 42.865 262.185 42.865C258.463 42.865 254.647 43.0432 252.201 45.0245C250.323 46.5462 250.018 49.3023 249.977 50.4995V43.8043H231.428V90H249.977V64.0191C249.986 62.8581 250.222 61.8628 250.687 61.0334C251.16 60.1884 251.822 59.5468 252.674 59.1086C253.526 58.6704 254.488 58.4513 255.56 58.4513C257.138 58.4513 258.447 58.9365 259.488 59.9067C260.529 60.8769 261.049 62.2697 261.049 64.085ZM249.977 64.0191C249.977 64.041 249.977 64.063 249.977 64.085L249.977 56.7388L249.977 51.0807C249.977 51.0807 249.965 50.8613 249.977 50.4995V64.0191Z" fill="black"/>
<path id="Shape_4" fill-rule="evenodd" clip-rule="evenodd" d="M282.18 21.2695V89.9997H300.729V68.522L312.18 90.0001H333L317.589 65.2492L332.053 43.8044H312.085L300.729 63.1076V21.2695H282.18ZM300.729 63.1076V68.522L300.716 68.4984L300.716 65.6816L300.716 63.1289L300.729 63.1076Z" fill="black"/>
</g>
</g>
</svg>
